<svg width="300" height="122" viewBox="0 0 300 122" fill="none" xmlns="http://www.w3.org/2000/svg">
<path d="M52 0.999995C52 1.49999 52.6 1.99999 53.4 1.99999C55 1.99999 57.4 5.39999 58.4 8.99999C58.8 10.4 60.2 14.2 61.5 17.5C74.9 51.8 75.3 53.2 71.7 55.4C70.2 56.3 69.4 55.9 67.2 53.2C65.7 51.4 63.1 47.3 61.6 44.2C60 41.1 57.2 36 55.3 32.9C53.5 29.8 52 26.4 52 25.3C52 22.8 49.3 19 47.4 19C45.2 19 45.7 20.6 49.8 26C51.9 28.8 56 35.9 58.9 41.8C61.8 47.7 64.6 53.3 65.1 54.3C67 57.8 65.2 57.1 61 52.8C58.7 50.4 57.3 49.4 57.8 50.5C58.4 51.6 59.8 53.4 60.9 54.4C62.1 55.5 63 57.2 63 58.2C63 60.9 60.4 65.6 58.4 66.4C55.9 67.3 46.6 59.7 41.7 52.8C37.8 47.3 36 45.8 36 48C36 48.6 40.3 53.4 45.5 58.7C51 64.2 55 69 54.8 69.9C54.3 72.3 49.6 72.4 44.8 69.9C39.6 67.3 33.5 62.5 25.6 54.8C22.4 51.6 19.2 49.3 18.7 49.7C18 50.1 19 51.4 20.9 52.9C22.7 54.3 27.7 58.4 32 62C43.1 71.4 45.3 73 46.7 73C48.5 73 49.5 77.7 48 79.5C47.3 80.3 46.4 80.7 45.9 80.4C45.4 80.1 45 80.3 45 80.9C45 81.4 45.5 82.2 46.1 82.6C48 83.7 44.9 85 40.2 85C31.8 85 10.2 77.9 4.8 73.2C3 71.7 0 72.2 0 73.9C0 74.4 1.7 75.4 3.8 76C5.8 76.7 10.7 78.5 14.5 80C18.4 81.5 23.1 83.1 25 83.7C37.5 87.3 41 88.6 41.5 89.8C41.7 90.5 41.4 91.3 40.6 91.6C38.6 92.4 19.8 87.1 17.6 85.1C16 83.8 15.8 83.8 16.2 85C16.4 85.8 19.9 87.5 24.1 88.8C28.2 90.1 33.5 92 36 93.1C38.5 94.1 41.6 95.1 43 95.2C45.2 95.5 45.5 95.9 45.3 99C44.9 104.9 45.7 106.8 49.5 108C51.4 108.6 53.3 109.8 53.7 110.5C54.2 111.2 56.7 114.1 59.3 116.9C64.1 121.9 64.1 121.9 69.8 121.6L75.5 121.3L76.2 117.4C77.3 111.1 77.1 110 74.4 107.3C72.9 105.9 71.8 103.7 71.8 102.6C72 99.5 72.9 92.7 73.2 92.6C73.4 92.6 75.1 91 77.1 89.2C79 87.4 81.7 85.8 82.9 85.5C85.7 85 88.2 83.1 87.5 82C87.2 81.6 88 80 89.1 78.6C90.9 76.3 91.5 76.1 92.7 77.2C93.6 77.9 95.9 78.5 97.9 78.6C99.9 78.7 103.3 79.5 105.5 80.5C107.7 81.4 110.7 82.3 112.2 82.4C113.6 82.4 114.6 82.8 114.3 83.2C113.4 84.8 115.7 83.9 117.2 82.2C120.1 78.8 120.1 77 117.2 75.8C115.7 75.1 114.4 74.5 114.2 74.4C113.6 74.1 117.3 65.5 118.8 63.8C119.6 62.9 123.2 61.1 126.9 60C130.5 58.8 134.1 57.6 134.9 57.4C135.7 57.2 136 56.7 135.7 56.4C135.4 56.1 131.4 57.2 126.9 58.8C114.5 63.1 112.1 63.4 106.4 61C103.8 59.8 99.3 58.4 96.5 57.8C93.8 57.3 90.5 56.2 89.2 55.4C88 54.6 86.5 54.2 86.1 54.5C84.9 55.2 81 50.2 81 48.1C81 45.5 76.1 36.9 71.4 31.3C68.3 27.7 67 25.3 67 23.2C67 19.2 65.4 15.1 62.7 12C61.5 10.6 59.6 7.89999 58.6 5.99999C56 1.19999 52 -1.9 52 0.999995Z" fill="#C1121F"/>
<path d="M52.9 42.7C53.4 43.7 54.5 45.4 55.4 46.5C56.8 48.3 56.8 48.2 55.8 44.7C55.2 42.7 54 41 53.3 41C52.3 41 52.2 41.5 52.9 42.7Z" fill="#C1121F"/>
<path d="M142.8 63.6C144.9 65 145 65.8 145 78.1V91H147.5C149.9 91 150 90.8 150 84V77H155C157.8 77 160 76.5 160 76C160 75.4 157.8 75 155 75H150V69.5V64H154.3C159 64 160.1 64.6 161.8 67.5C162.9 69.4 162.9 69.4 163 66.9C163 62.7 161.4 62 150.6 62C141.2 62 140.7 62.1 142.8 63.6Z" fill="black"/>
<path d="M224.3 63.7999C225.3 64.7999 226 66.7999 226 68.2999C226 70.6999 225.7 70.7999 222.6 70.2999C218.4 69.5999 215.5 71.1999 213.4 75.1999C210 81.8999 214 90.9999 220.5 90.9999C222.2 90.9999 224.1 90.4999 224.8 89.7999C225.7 88.8999 226.3 88.8999 227.2 89.7999C230.5 93.0999 231 91.2999 231 77.0999C231 62.0999 231 61.9999 225.3 61.9999C222.8 61.9999 222.8 62.0999 224.3 63.7999ZM225.8 78.4999C226.2 86.5999 225.5 88.9999 222.7 88.9999C219.2 88.9999 218 87.0999 218 81.1999C218 74.2999 219.3 71.7999 222.8 72.1999C225.4 72.4999 225.5 72.7999 225.8 78.4999Z" fill="black"/>
<path d="M248.6 62.8C248.2 63.5 242.3 76.8 237.9 86.7C236.9 89.1 236.5 91 237 91C237.6 91 238.7 89.2 239.6 87L241.2 83H247.5C253.4 83 253.8 83.1 254.9 85.9C256.2 88.9 259.6 91 263.2 91C265.2 91 265.2 90.9 262.9 88.7C261.6 87.5 258.3 81 255.5 74.2C250.8 62.6 249.8 61 248.6 62.8ZM250 74.6C251.1 77.2 252 79.6 252 80.1C252 80.6 250 81 247.5 81C245 81 243 80.6 243 80C243 79 247.2 70 247.7 70C247.8 70 248.8 72.1 250 74.6Z" fill="#C1121F"/>
<path d="M289.2 65.2C288.5 65.9 288 67.4 288 68.6C288 69.8 287.4 71.1 286.8 71.3C285.8 71.7 285.8 71.9 286.8 71.9C287.6 72 288 74.2 288 79.3C288 88.1 289.6 91 294.3 91C296.1 91 298.2 90.5 299 90C300.1 89.3 299.7 89 297.3 89H294V81.5C294 77.4 293.9 73.7 293.8 73.2C293.6 72.8 294.5 72.4 295.8 72.2C298.7 71.8 298.7 70.3 295.8 70.4C293.8 70.5 293.5 70.1 293.8 67.2C294.1 64.6 293.8 64 292.3 64C291.2 64 289.9 64.5 289.2 65.2Z" fill="#C1121F"/>
<path d="M170.3 71C167.7 72.1 165 76.9 165 80.5C165 83.9 167.5 88.7 169.9 90C173 91.6 178.6 91.2 181.1 89.1C182.4 88 183.2 86.9 182.8 86.5C182.4 86.1 181.4 86.5 180.5 87.4C176.7 91.1 171 88.5 171 83.1C171 81.2 171.6 81 177.5 81C183.8 81 184 80.9 184 78.4C184 74.8 179 70 175.3 70.1C173.8 70.1 171.5 70.5 170.3 71ZM177.4 73.6C177.7 74.5 178 76.3 178 77.6C178 79.7 177.5 80 174.5 80C171.3 80 171 79.7 171 77.2C171 75.7 171.5 73.9 172.2 73.2C173.9 71.5 176.7 71.7 177.4 73.6Z" fill="black"/>
<path d="M191.9 72.9C185.6 79.2 189.7 91 198.2 91C201.7 91 206 88.7 206 86.8C206 86.2 205.2 86.4 204.3 87.3C200.9 90.2 196.7 89.9 195.2 86.5C192.9 81.5 193.5 81 200.5 81C206.7 81 207 80.9 207 78.6C207 74.8 206 73 202.9 71.5C198.6 69.2 195.2 69.7 191.9 72.9ZM201.2 74.4C202.8 78 201.6 80 198 80C194.4 80 193.5 78.4 194.9 74.7C196.2 71.2 199.6 71.1 201.2 74.4Z" fill="black"/>
<path d="M266 70.7C266 70.9 266.7 71.8 267.5 72.6C268.6 73.7 269 76.4 269 82.6C269 90.9 269 91 271.5 91C273.9 91 273.9 90.8 274.2 82.2L274.5 73.5H278.2C282.4 73.5 283.4 72.3 280.8 70.6C279.5 69.8 278.2 69.9 276.1 70.7C274.2 71.4 271.7 71.5 269.5 71C267.6 70.6 266 70.4 266 70.7Z" fill="#C1121F"/>
</svg>
